<svg xmlns="http://www.w3.org/2000/svg" viewBox="0 0 512 512" role="img" aria-label="BoviGest">
  <rect width="512" height="512" rx="96" fill="#256f3e"/>
  <path fill="#ffffff" d="M148 168c0-33 27-60 60-60h96c33 0 60 27 60 60v24c-18-12-40-18-64-18s-46 6-64 18v-24zm-20 88c0-62 50-112 112-112h80c62 0 112 50 112 112v8c-28-20-62-32-100-32s-72 12-100 32v-8c0-22 18-40 40-40h120c22 0 40 18 40 40v120c0 22-18 40-40 40H240c-22 0-40-18-40-40V256zm40 0v120h120V256H168z"/>
  <text x="256" y="430" text-anchor="middle" font-family="Arial, Helvetica, sans-serif" font-size="72" font-weight="700" fill="#ffffff">BG</text>
</svg>
